<svg width="152" height="183" viewBox="0 0 152 183" fill="none" xmlns="http://www.w3.org/2000/svg">
<path fill-rule="evenodd" clip-rule="evenodd" d="M107.693 18.3H145.778C155.8 18.3 164 26.535 164 36.6V164.7C164 174.765 155.8 183 145.778 183H18.2222C16.9467 183 15.7622 182.908 14.5778 182.725C11.0244 181.993 7.83556 180.163 5.37556 177.693C3.73556 175.954 2.36889 174.033 1.45778 171.837C0.546667 169.641 0 167.171 0 164.7V36.6C0 34.038 0.546667 31.659 1.45778 29.5545C2.36889 27.3585 3.73556 25.3455 5.37556 23.6985C7.83556 21.228 11.0244 19.398 14.5778 18.666C15.7622 18.3915 16.9467 18.3 18.2222 18.3H56.3067C60.1333 7.686 70.1556 0 82 0C93.8444 0 103.867 7.686 107.693 18.3ZM36.4444 73.2V54.9H127.556V73.2H36.4444ZM127.556 109.8V91.5H36.4444V109.8H127.556ZM100.222 128.1H36.4444V146.4H100.222V128.1ZM82 16.0125C85.7355 16.0125 88.8333 19.1235 88.8333 22.875C88.8333 26.6265 85.7355 29.7375 82 29.7375C78.2644 29.7375 75.1667 26.6265 75.1667 22.875C75.1667 19.1235 78.2644 16.0125 82 16.0125ZM18.2222 164.7H145.778V36.6H18.2222V164.7Z" fill="white"/>
</svg>
