<svg width="43" height="42" viewBox="0 0 43 42" fill="none" xmlns="http://www.w3.org/2000/svg">
<path d="M1.38229 21C1.38229 32.2569 10.5078 41.3824 21.7646 41.3824C33.0215 41.3824 42.147 32.2569 42.147 21C42.147 9.74314 33.0215 0.617647 21.7646 0.617647C10.5078 0.617647 1.38229 9.74314 1.38229 21Z" fill="white" stroke="#FD7147" stroke-width="1.23529"/>
<path d="M30.4112 22.2354H16.613L22.6412 28.2636C23.123 28.7454 23.123 29.5359 22.6412 30.0177C22.1594 30.4995 21.3812 30.4995 20.8994 30.0177L12.7588 21.8771C12.2771 21.3954 12.2771 20.6171 12.7588 20.1354L20.8871 11.9824C21.3688 11.5007 22.1471 11.5007 22.6288 11.9824C23.1106 12.4642 23.1106 13.2424 22.6288 13.7242L16.613 19.7648H30.4112C31.0906 19.7648 31.6465 20.3207 31.6465 21.0001C31.6465 21.6795 31.0906 22.2354 30.4112 22.2354Z" fill="#FD7147"/>
</svg>
