<svg width="174" height="220" viewBox="0 0 174 220" fill="none" xmlns="http://www.w3.org/2000/svg">
<g opacity="0.074335">
<path fill-rule="evenodd" clip-rule="evenodd" d="M111 19C60.216 19 19 60.216 19 111C19 161.784 60.216 203 111 203C161.784 203 203 161.784 203 111C203 60.216 161.784 19 111 19ZM101.8 65V83.4H120.2V65H101.8ZM101.8 101.8V157H120.2V101.8H101.8ZM37.4 111C37.4 151.572 70.428 184.6 111 184.6C151.572 184.6 184.6 151.572 184.6 111C184.6 70.428 151.572 37.4 111 37.4C70.428 37.4 37.4 70.428 37.4 111Z" fill="white"/>
</g>
</svg>
