<svg width="142" height="183" viewBox="0 0 142 183" fill="none" xmlns="http://www.w3.org/2000/svg">
<path fill-rule="evenodd" clip-rule="evenodd" d="M169.816 67.1495L191 91.4563L169.816 115.763L172.768 147.939L141.427 155.108L125.018 182.913L95.5 170.147L65.9818 183L49.5732 155.196L18.2318 148.026L21.1836 115.763L0 91.4563L21.1836 67.0621L18.2318 34.8863L49.5732 27.8041L65.9818 0L95.5 12.7654L125.018 0L141.427 27.8041L172.768 34.9737L169.816 67.1495ZM154.102 134.299L151.845 109.905L167.906 91.4563L151.845 73.0076L154.102 48.6135L130.314 43.1925L117.899 22.1209L95.5 31.8261L73.1009 22.2083L60.6859 43.28L36.8977 48.6135L39.155 72.9202L23.0936 91.4563L39.155 109.817L36.8977 134.299L60.6859 139.72L73.1009 160.792L95.5 151.086L117.899 160.792L130.314 139.72L154.102 134.299ZM104.182 117.687V135.173H86.8182V117.687H104.182ZM104.182 47.7391H86.8182V100.2H104.182V47.7391Z" fill="white"/>
</svg>
