<svg width="155" height="188" viewBox="0 0 155 188" fill="none" xmlns="http://www.w3.org/2000/svg">
<path fill-rule="evenodd" clip-rule="evenodd" d="M188 94C188 42.112 145.888 0 94 0C42.112 0 0 42.112 0 94C0 145.888 42.112 188 94 188C145.888 188 188 145.888 188 94ZM169.2 94C169.2 135.548 135.548 169.2 94 169.2C52.452 169.2 18.8 135.548 18.8 94C18.8 52.452 52.452 18.8 94 18.8C135.548 18.8 169.2 52.452 169.2 94Z" fill="white"/>
<path d="M140.06 76.892C137.616 82.156 136.394 87.796 136.3 93.812C136.206 99.734 137.522 105.562 140.06 111.296L127.182 117.124C123.704 109.51 122.012 101.614 122.106 93.624C122.2 85.728 123.892 78.114 127.182 71.064L140.06 76.892Z" fill="white"/>
<path d="M81.498 50.102C74.166 64.86 70.406 79.618 70.406 93.718C70.406 107.912 74.166 122.764 81.498 137.804L68.808 144.008C60.536 126.994 56.306 110.074 56.306 93.718C56.306 77.362 60.536 60.536 68.808 43.804L81.498 50.102Z" fill="white"/>
<path d="M110.92 63.1681C105.938 73.2261 103.4 83.9421 103.4 95.1281C103.4 106.126 105.844 116.09 110.732 124.738L98.5119 131.694C92.4019 120.884 89.2999 108.664 89.2999 95.1281C89.2999 81.7801 92.3079 68.9021 98.3239 56.8701L110.92 63.1681Z" fill="white"/>
</svg>
