<svg width="129" height="183" viewBox="0 0 129 183" fill="none" xmlns="http://www.w3.org/2000/svg">
<path fill-rule="evenodd" clip-rule="evenodd" d="M157.643 91.5C157.643 94.611 157.368 97.539 157.002 100.467L176.308 115.564C178.047 116.937 178.504 119.408 177.406 121.421L159.107 153.079C158.283 154.544 156.728 155.367 155.172 155.367C154.623 155.367 154.074 155.275 153.525 155.092L130.743 145.943C125.985 149.511 120.861 152.622 115.28 154.91L111.803 179.157C111.528 181.353 109.607 183 107.32 183H70.7209C68.4334 183 66.512 181.353 66.2375 179.157L62.7606 154.91C57.1793 152.622 52.0555 149.603 47.2977 145.943L24.515 155.092C24.0575 155.275 23.5085 155.367 22.9596 155.367C21.3126 155.367 19.7572 154.544 18.9337 153.079L0.634362 121.421C-0.463599 119.408 -0.00611567 116.937 1.73232 115.564L21.0381 100.467C20.6721 97.539 20.3977 94.5195 20.3977 91.5C20.3977 88.4805 20.6721 85.461 21.0381 82.533L1.73232 67.4355C-0.00611567 66.063 -0.555096 63.5925 0.634362 61.5795L18.9337 29.9205C19.7572 28.4565 21.3126 27.633 22.8681 27.633C23.417 27.633 23.966 27.7245 24.515 27.9075L47.2977 37.0575C52.0555 33.489 57.1793 30.378 62.7606 28.0905L66.2375 3.843C66.512 1.647 68.4334 0 70.7209 0H107.32C109.607 0 111.528 1.647 111.803 3.843L115.28 28.0905C120.861 30.378 125.985 33.3975 130.743 37.0575L153.525 27.9075C153.983 27.7245 154.532 27.633 155.081 27.633C156.728 27.633 158.283 28.4565 159.107 29.9205L177.406 61.5795C178.504 63.5925 178.047 66.063 176.308 67.4355L157.002 82.533C157.368 85.461 157.643 88.389 157.643 91.5ZM139.343 91.5C139.343 89.5785 139.252 87.657 138.886 84.8205L137.605 74.481L145.748 68.076L155.538 60.2985L149.134 49.227L137.513 53.8935L127.815 57.828L119.489 51.423C115.829 48.678 112.169 46.5735 108.235 44.9265L98.5359 40.992L97.0719 30.6525L95.3335 18.3H82.6154L80.7855 30.6525L79.3216 40.992L69.6229 44.9265C65.8715 46.482 62.1202 48.678 58.1858 51.606L49.9511 57.828L40.4354 53.985L28.8154 49.3185L22.4106 60.39L32.2922 68.076L40.4354 74.481L39.1545 84.8205C38.88 87.5655 38.697 89.67 38.697 91.5C38.697 93.33 38.88 95.4345 39.1545 98.271L40.4354 108.611L32.2922 115.016L22.4106 122.701L28.8154 133.773L40.4354 129.107L50.1341 125.172L58.4603 131.577C62.1202 134.322 65.78 136.426 69.7144 138.074L79.4131 142.008L80.877 152.348L82.6154 164.7H95.425L97.2549 152.348L98.7189 142.008L108.418 138.074C112.169 136.518 115.92 134.322 119.855 131.394L128.089 125.172L137.605 129.015L149.225 133.682L155.63 122.61L145.748 114.924L137.605 108.519L138.886 98.1795C139.16 95.4345 139.343 93.4215 139.343 91.5ZM89.0202 54.9C68.7994 54.9 52.4215 71.2785 52.4215 91.5C52.4215 111.721 68.7994 128.1 89.0202 128.1C109.241 128.1 125.619 111.721 125.619 91.5C125.619 71.2785 109.241 54.9 89.0202 54.9ZM70.7209 91.5C70.7209 101.565 78.9556 109.8 89.0202 109.8C99.0849 109.8 107.32 101.565 107.32 91.5C107.32 81.435 99.0849 73.2 89.0202 73.2C78.9556 73.2 70.7209 81.435 70.7209 91.5Z" fill="white"/>
</svg>
