<svg width="145" height="188" viewBox="0 0 145 188" fill="none" xmlns="http://www.w3.org/2000/svg">
<path fill-rule="evenodd" clip-rule="evenodd" d="M94 0C42.112 0 0 42.112 0 94C0 145.888 42.112 188 94 188C145.888 188 188 145.888 188 94C188 42.112 145.888 0 94 0ZM98.794 75.106C98.794 59.596 86.104 46.906 70.594 46.906C55.084 46.906 42.394 59.596 42.394 75.106C42.394 90.616 55.084 103.306 70.594 103.306C86.104 103.306 98.794 90.616 98.794 75.106ZM70.594 84.506C65.424 84.506 61.194 80.276 61.194 75.106C61.194 69.936 65.424 65.706 70.594 65.706C75.764 65.706 79.994 69.936 79.994 75.106C79.994 80.276 75.764 84.506 70.594 84.506ZM150.494 84.506C150.494 94.94 142.128 103.306 131.694 103.306C121.26 103.306 112.894 94.94 112.894 84.506C112.8 74.072 121.26 65.706 131.694 65.706C142.128 65.706 150.494 74.072 150.494 84.506ZM70.594 131.6C57.528 131.6 42.582 136.958 36.19 142.034C49.068 157.544 68.056 167.696 89.394 168.918V142.786C89.394 125.02 117.406 117.406 131.694 117.406C139.966 117.406 152.75 120.038 162.15 125.584C166.662 115.902 169.2 105.186 169.2 93.906C169.2 52.452 135.454 18.706 94 18.706C52.546 18.706 18.8 52.452 18.8 93.906C18.8 105.468 21.432 116.372 26.132 126.148C38.728 116.936 58.374 112.706 70.594 112.706C74.73 112.706 79.712 113.27 84.976 114.21C79.054 119.568 75.012 125.678 72.756 131.694C72.3675 131.694 71.9789 131.669 71.6033 131.645C71.252 131.622 70.912 131.6 70.594 131.6Z" fill="white"/>
</svg>
