<svg width="152" height="152" viewBox="0 0 152 152" fill="none" xmlns="http://www.w3.org/2000/svg">
<g opacity="0.0708473">
<path fill-rule="evenodd" clip-rule="evenodd" d="M140 50.8947C140 43.8842 134.349 38.2632 127.3 38.2632H101.9V25.6316C101.9 18.6211 96.2485 13 89.2 13H63.8C56.7515 13 51.1 18.6211 51.1 25.6316V38.2632H25.7C18.6515 38.2632 13.0635 43.8842 13.0635 50.8947L13 120.368C13 127.379 18.6515 133 25.7 133H127.3C134.349 133 140 127.379 140 120.368V50.8947ZM89.2 38.2632V25.6316H63.8V38.2632H89.2ZM25.7 50.8947V120.368H127.3V50.8947H25.7Z" fill="white"/>
</g>
</svg>
